<?xml version="1.0" encoding="UTF-8"?>
<svg id="Capa_1" data-name="Capa 1" xmlns="http://www.w3.org/2000/svg" viewBox="0 0 269.82 224.6">
  <defs>
    <style>
      .cls-1 {
        fill: #010101;
      }
    </style>
  </defs>
  <path class="cls-1" d="M129.58.19c21.01-1.25,42.34,3.74,60.64,13.97,21.35,11.93,30.8,31.93,59.38,22.38,3.54-1.18,13.06-6.47,15.45-6.47,2.87,0,4.43,1.61,4.73,3.84.23,1.71-.45,3.41-1.64,4.66-25.93,27.37-57.01,49.26-88.73,69.43-44.18,28.1-109.82,66.42-160.73,77.16-3.39.71-10.32,2.5-13.41,2.45-5.24-.07-7.19-6.35-2.97-9.54,5.35-4.04,9.05-6.02,13.63-11.53,15.41-18.54,7.97-41.34,9.32-63.42C28.61,47.98,74.83,3.45,129.58.19ZM127.39,44.49c-37.13,3.57-62.38,41.38-58.33,77.15,1.36,12.04,9.16,21.34,21.93,16.06,13.2-5.46,29.62-15.98,42.35-23.27,14.31-8.19,35.88-19.29,48.02-29.64,5.94-5.07,7.86-12.15,2.75-18.59-12.86-16.21-36.53-23.65-56.72-21.71Z"/>
  <path class="cls-1" d="M97.89,169.56c2.76-1.39,6.06-.42,7.8,2.14,3.11,4.6,11.27,6.37,16.23,7.55,30.68,7.3,63.98-9.73,76.78-38.3,2.94-6.57,7.19-17.99,2.49-22.91-2.46-2.58-1.83-6.81,1.06-8.89,7.05-5.08,14.11-10.16,21.33-14.95,3.45-2.29,9.65-7.24,13.57-7.25,6.13-.02,8.53,3.62,9.51,9.13,16.47,92.49-90.34,163.36-169.97,110.36-5.95-3.96-19.05-11.69-13.73-19.62.63-.94,1.56-1.65,2.61-2.08,5.05-2.11,10.16-4.14,15.1-6.49,5.8-2.76,11.49-5.77,17.22-8.67Z"/>
</svg>